# xmcd CD database file
#
# Track frame offsets:
#	150
#	9635
#	25729
#	40622
#	54564
#	95228
#	109796
#	146279
#	162546
#	177079
#	186575
#	201429
#	224305
#	236444
#	251604
#	271546
#	292379
#	306075
#
# Disc length: 4238 seconds
#
# Revision: 0
# Processed by: cddbd v1.5.2PL0 Copyright (c) Steve Scherf et al.
# Submitted via: CDex 1.51
#
DISCID=09108c12
DTITLE=Various Artist - Mellow Jazz - Disc One
DYEAR=1900
DGENRE=Jazz
TTITLE0=Cicago - Tony Bennet
TTITLE1=Take Five - Quincy Jones
TTITLE2=Moon River - Judy Garland
TTITLE3=If you can't smile - Nat King Cole
TTITLE4=Blue Train - John Coltrane
TTITLE5=Fine and Mellow - Billy Holiday
TTITLE6=Mr Lucky - Miles Davis
TTITLE7=Every Time We Say Goodbye - Lena Horne
TTITLE8=My old Flame - Charlie Parker
TTITLE9=Let Ther Be Love - Peggy Lee
TTITLE10=In A Sentimental Mood - Duke Ellington
TTITLE11=Crazy after all these years - The Right Blend
TTITLE12=Its only a paper moon - Ella Fitzgerald
TTITLE13=Broadway - Count Basie
TTITLE14=Dream a little dream of me - Dee Harrington
TTITLE15=Shape of my heart - Sundown Park
TTITLE16=Misty - Sarah Vaughn
TTITLE17=If I give you my love - Ray Charles
EXTD=
EXTT0=
EXTT1=
EXTT2=
EXTT3=
EXTT4=
EXTT5=
EXTT6=
EXTT7=
EXTT8=
EXTT9=
EXTT10=
EXTT11=
EXTT12=
EXTT13=
EXTT14=
EXTT15=
EXTT16=
EXTT17=
PLAYORDER=
